<svg xmlns="http://www.w3.org/2000/svg" width="19.997" height="19.997" viewBox="0 0 19.997 19.997"><defs><style>.a{fill:#fff;}</style></defs><path class="a" d="M1117.991,627.013v20h20v-20Zm11,15.6a2.7,2.7,0,0,1-2.863,2.976,2.782,2.782,0,0,1-2.848-1.575h-.025l1.529-1.069c.3.523.561.895,1.2.895.617,0,1-.313,1-1.253v-6.572h2Zm4.328,2.833a3.61,3.61,0,0,1-3.423-1.92h0l1.53-.886a2.045,2.045,0,0,0,1.852,1.141c.779,0,1.275-.389,1.275-.926,0-.807-1.078-1.123-1.839-1.45-1.356-.577-2.255-1.3-2.255-2.832a2.512,2.512,0,0,1,2.752-2.483,2.775,2.775,0,0,1,2.671,1.5l-1.463.94a1.279,1.279,0,0,0-1.208-.806.818.818,0,0,0-.9.806c0,.564.349.792,1.154,1.141,1.689.724,2.967,1.293,2.967,3.154C1136.431,644.516,1135.1,645.443,1133.317,645.443Z" transform="translate(-1117.991 -627.013)"/></svg>