<svg xmlns="http://www.w3.org/2000/svg" width="375.692" height="297.561" viewBox="0 0 375.692 297.561"><defs><style>.a{fill:#f3f3f3;}.b,.c,.e{fill:#6c63ff;}.c{opacity:0.3;}.d,.i{opacity:0.5;}.e{opacity:0.07;}.f{fill:#e6e8ec;}.g{fill:#dcdfed;}.h{opacity:0.1;}.i{fill:#f2f2f2;}.j{fill:#e3e5f1;}.k{fill:#a8a8a8;}.l{fill:#fff;}</style></defs><g transform="translate(-818 -242)"><path class="a" d="M704.973,272.633l3.187-.551c.306-.054.609-.119.915-.174a26.16,26.16,0,0,1,16.7-48.225l-4.177,9.939,9.9-8.641a.446.446,0,0,1,.068.023,26.162,26.162,0,0,1,15.985,33.368c-.166.471-.363.921-.552,1.377a31.276,31.276,0,0,0,7.659-5.13c4.425-4.24,6.849-10.091,9.558-17.3,5.367-14.285,10.535-28.776,15.5-43.3a26.15,26.15,0,0,1-12.226-31.668c.266-.755.574-1.482.9-2.2.082-.179.164-.356.249-.533.332-.685.682-1.356,1.066-2,.063-.106.133-.2.2-.309q.5-.814,1.058-1.58c.138-.192.276-.383.419-.57.421-.55.856-1.085,1.315-1.6.153-.171.316-.331.474-.5q.529-.558,1.088-1.083c.2-.184.39-.37.592-.547.052-.046.1-.1.152-.141l.007.01a26.144,26.144,0,0,1,33.45-.751l-5.435,12.934,9.784-8.538a26.017,26.017,0,0,1,.967,30.812l.027.009c-.107.157-.228.3-.338.455q-.31.434-.634.853c-.278.358-.567.7-.861,1.045-.223.258-.442.517-.673.765-.339.362-.694.706-1.051,1.047-.209.2-.408.408-.623.6q-.844.754-1.745,1.43c-.211.158-.433.3-.649.449-.422.3-.846.59-1.285.861-.272.168-.551.322-.829.48-.4.229-.807.451-1.22.658-.293.147-.588.286-.886.422-.424.193-.854.373-1.288.543-.291.114-.581.23-.877.334-.487.172-.982.321-1.479.463-.251.072-.5.155-.751.219-.746.19-1.5.352-2.264.476-.144.023-.29.032-.434.053-.633.092-1.269.166-1.91.212-.276.019-.553.022-.83.033-.518.02-1.037.03-1.558.019-.3-.006-.608-.022-.913-.039q-.762-.043-1.525-.133c-.3-.035-.6-.069-.9-.115-.545-.083-1.089-.191-1.634-.309-.036-.008-.072-.012-.107-.02q-3.141,9.191-6.4,18.342a26.144,26.144,0,0,1,37.909,3.125l-9.045,10,12.246-4.889a26.072,26.072,0,0,1,1.047,19.916,25.661,25.661,0,0,1-3.323,6.429,26.151,26.151,0,0,1-47.253-11.474c-.23.615-.452,1.237-.683,1.851-2.391,6.359-5.365,14.274-11.338,20-4.049,3.878-9.03,6.339-13.81,8.419q-4.668,2.032-9.461,3.757a26.219,26.219,0,0,1-11.708,3.731c-5.041,1.4-10.146,2.57-15.3,3.472l-3.213.554c-2.887.495-5.848,1-8.786,1.591.423.126.847.245,1.268.393a26.17,26.17,0,0,1,17.47,25.461l-20.142,6.182,18.226,2.894a26.174,26.174,0,0,1-43.613,7.74q.277.93.557,1.857c.37,1.228.737,2.449,1.09,3.658,4.8,16.48,2.732,29.443-5.813,36.5l-4.637-5.613c8.316-6.87,5.736-21.026,3.46-28.854-.346-1.188-.707-2.387-1.071-3.593-3.124-10.377-6.665-22.14-2.078-32.949C669.045,278.785,688.966,275.374,704.973,272.633Z" transform="translate(369.195 132.123)"/><path class="a" d="M704.973,272.633l3.187-.551c.306-.054.609-.119.915-.174a26.16,26.16,0,0,1,16.7-48.225l-4.177,9.939,9.9-8.641a.446.446,0,0,1,.068.023,26.162,26.162,0,0,1,15.985,33.368c-.166.471-.363.921-.552,1.377a31.276,31.276,0,0,0,7.659-5.13c4.425-4.24,6.849-10.091,9.558-17.3,5.367-14.285,10.535-28.776,15.5-43.3a26.15,26.15,0,0,1-12.226-31.668c.266-.755.574-1.482.9-2.2.082-.179.164-.356.249-.533.332-.685.682-1.356,1.066-2,.063-.106.133-.2.2-.309q.5-.814,1.058-1.58c.138-.192.276-.383.419-.57.421-.55.856-1.085,1.315-1.6.153-.171.316-.331.474-.5q.529-.558,1.088-1.083c.2-.184.39-.37.592-.547.052-.046.1-.1.152-.141l.007.01a26.144,26.144,0,0,1,33.45-.751l-5.435,12.934,9.784-8.538a26.017,26.017,0,0,1,.967,30.812l.027.009c-.107.157-.228.3-.338.455q-.31.434-.634.853c-.278.358-.567.7-.861,1.045-.223.258-.442.517-.673.765-.339.362-.694.706-1.051,1.047-.209.2-.408.408-.623.6q-.844.754-1.745,1.43c-.211.158-.433.3-.649.449-.422.3-.846.59-1.285.861-.272.168-.551.322-.829.48-.4.229-.807.451-1.22.658-.293.147-.588.286-.886.422-.424.193-.854.373-1.288.543-.291.114-.581.23-.877.334-.487.172-.982.321-1.479.463-.251.072-.5.155-.751.219-.746.19-1.5.352-2.264.476-.144.023-.29.032-.434.053-.633.092-1.269.166-1.91.212-.276.019-.553.022-.83.033-.518.02-1.037.03-1.558.019-.3-.006-.608-.022-.913-.039q-.762-.043-1.525-.133c-.3-.035-.6-.069-.9-.115-.545-.083-1.089-.191-1.634-.309-.036-.008-.072-.012-.107-.02q-3.141,9.191-6.4,18.342a26.144,26.144,0,0,1,37.909,3.125l-9.045,10,12.246-4.889a26.072,26.072,0,0,1,1.047,19.916,25.661,25.661,0,0,1-3.323,6.429,26.151,26.151,0,0,1-47.253-11.474c-.23.615-.452,1.237-.683,1.851-2.391,6.359-5.365,14.274-11.338,20-4.049,3.878-9.03,6.339-13.81,8.419q-4.668,2.032-9.461,3.757a26.219,26.219,0,0,1-11.708,3.731c-5.041,1.4-10.146,2.57-15.3,3.472l-3.213.554c-2.887.495-5.848,1-8.786,1.591.423.126.847.245,1.268.393a26.17,26.17,0,0,1,17.47,25.461l-20.142,6.182,18.226,2.894a26.174,26.174,0,0,1-43.613,7.74q.277.93.557,1.857c.37,1.228.737,2.449,1.09,3.658,4.8,16.48,2.732,29.443-5.813,36.5l-4.637-5.613c8.316-6.87,5.736-21.026,3.46-28.854-.346-1.188-.707-2.387-1.071-3.593-3.124-10.377-6.665-22.14-2.078-32.949C669.045,278.785,688.966,275.374,704.973,272.633Z" transform="translate(312.195 97.123)"/><g transform="translate(1330.484 -1704)"><circle class="b" cx="7.5" cy="7.5" r="7.5" transform="translate(-433.484 1956)"/><circle class="b" cx="5" cy="5" r="5" transform="translate(-512.484 2023)"/><ellipse class="c" cx="17" cy="17.5" rx="17" ry="17.5" transform="translate(-482.484 2097)"/><g transform="translate(-462.575 1963.484)"><g class="d" transform="translate(0 32.734)"><g transform="translate(7.947 0)"><rect class="b" width="3.203" height="19.098"/></g><g transform="translate(0 7.948)"><rect class="b" width="19.098" height="3.203"/></g></g><g class="d" transform="translate(164.974 10)"><g transform="translate(4.857)"><rect class="b" width="1.958" height="11.673"/></g><g transform="translate(0 4.857)"><rect class="b" width="11.673" height="1.958" transform="translate(0 0)"/></g></g></g><g class="d" transform="translate(-256.698 2016.456)"><path class="b" d="M326.571,102.536a8.206,8.206,0,1,1,8.206-8.206A8.217,8.217,0,0,1,326.571,102.536Zm0-13.369a5.162,5.162,0,1,0,5.162,5.162A5.168,5.168,0,0,0,326.571,89.167Z" transform="translate(-318.365 -86.123)"/></g><g class="d" transform="translate(-369.234 1970.615)"><path class="b" d="M328.424,106.24a10.059,10.059,0,1,1,10.059-10.059A10.071,10.071,0,0,1,328.424,106.24Zm0-16.386a6.328,6.328,0,1,0,6.328,6.328A6.334,6.334,0,0,0,328.424,89.854Z" transform="translate(-318.365 -86.123)"/></g></g><ellipse class="e" cx="128.262" cy="12.934" rx="128.262" ry="12.934" transform="translate(827.241 513.692)"/><circle class="f" cx="0.159" cy="0.159" r="0.159" transform="translate(1067.328 320.799)"/><path class="g" d="M435.933,245.418,320.57,320.262l75.285,135.783a5.254,5.254,0,0,0,3.353,2.559l68.214,16.64a5.258,5.258,0,0,0,5.973-2.828l33.836-70.3,37.082-49.571-88-104.109A15.594,15.594,0,0,0,435.933,245.418Z" transform="translate(547.847 21.861)"/><path class="h" d="M546.967,353.871l-.326.441-21.722,29.04-.393.525-14.641,19.573-28.939,60.132-.812,1.681-4.085,8.483a5.258,5.258,0,0,1-5.982,2.828l-68.214-16.649a5.245,5.245,0,0,1-3.353-2.559l-6.56-11.809-1.178-2.126L343.415,358l-.406-.728-19.79-35.688,2.391-1.553,18.126-11.756.419-.273,38.172-24.766,2.409-1.562,53.841-34.934a15.59,15.59,0,0,1,20.39,3.017l40.144,47.511,1.765,2.117,29.137,34.471.159.19,14.65,17.328,1.844,2.184Z" transform="translate(546.366 21.126)"/><path class="h" d="M551.739,380.152l-3.556,24.7-1.072,7.455-.613,15.881-.049,1.24-3.189,82.979a5.263,5.263,0,0,1-6.4,4.927l-34.383-7.676-.371-.084L413.926,489.9l-1.619-.362L363.83,478.712l1.112-74.606.035-2.492.335-22.582.371-24.924,38.172-24.766,2.409-1.562c35.406,3.631,82.493,10.614,114.392,15.594l1.765,2.117,29.115,34.471Z" transform="translate(523.671 -25.567)"/><path class="b" d="M555.207,350.023l-4.186,29.115L547.183,405.8l-1.072,7.438-.613,15.881-3.238,84.218a5.263,5.263,0,0,1-6.4,4.928l-34.753-7.76-88.18-19.679-50.1-11.187,1.147-77.1.335-22.582.393-26.416.4-27.17c8.285-.393,21.916.494,38.19,2.131,36.438,3.657,86.111,11.055,118.588,16.15C541.77,347.773,555.207,350.023,555.207,350.023Z" transform="translate(524.23 -24.729)"/><rect class="i" width="141.867" height="3.86" transform="matrix(0.995, 0.105, -0.105, 0.995, 904.909, 371.936)"/><path class="h" d="M542.218,446.073l-18.647,9.145L428.4,501.891l-87.7-72.484L322.971,414.73l-2.391,1.553,19.79,35.688-1.147,77.1,50.1,11.187,6.547,11.809a5.245,5.245,0,0,0,3.353,2.559l68.214,16.64a5.258,5.258,0,0,0,5.969-2.828l4.085-8.483,34.753,7.76a5.263,5.263,0,0,0,6.4-4.928l3.238-84.218,22.114-29.556.062-.746Z" transform="translate(547.842 -74.159)"/><path class="g" d="M310.594,418.25l-7.866,134.694a5.258,5.258,0,0,0,4.107,5.439l208.889,46.386a5.258,5.258,0,0,0,6.366-4.707l12.242-149.525-115.91,56.85Z" transform="translate(557.823 -76.127)"/><path class="h" d="M305.45,644.289l108.521-66.952a7.967,7.967,0,0,1,10.146,1.588l97.131,113.281c.353.406.525.115,0,0l-215.8-47.917C304.833,644.152,304.912,644.611,305.45,644.289Z" transform="translate(556.54 -164.388)"/><path class="j" d="M307.047,646.592l107.4-64.879a8.421,8.421,0,0,1,10.711,1.685l96.253,110.7a1.16,1.16,0,0,1-1.125,1.893L307.4,648.714a1.156,1.156,0,0,1-.348-2.122Z" transform="translate(555.72 -166.801)"/><g transform="translate(62.978 -173.841)"><path class="g" d="M93.275,630.212c0,26.044,16.339,47.118,36.53,47.118" transform="translate(954.725 28.727)"/><path class="g" d="M175.975,676.662c0-26.337,18.233-47.648,40.765-47.648" transform="translate(908.555 29.395)"/><path class="b" d="M123.239,635.557c0,24.739,10.419,44.758,23.295,44.758" transform="translate(937.997 25.743)"/><path class="b" d="M175.975,659.934c0-33.652,21.074-60.883,47.118-60.883" transform="matrix(0.998, -0.07, 0.07, 0.998, 862.13, 62.575)"/><path class="k" d="M158.577,734.1s5.181-.16,6.742-1.271,7.969-2.439,8.356-.656,7.785,8.868,1.937,8.915-13.59-.911-15.148-1.86S158.577,734.1,158.577,734.1Z" transform="translate(918.268 -27.707)"/></g><rect class="i" width="47.771" height="6.756" transform="matrix(0.995, 0.105, -0.105, 0.995, 907.044, 322.951)"/><rect class="i" width="141.867" height="3.86" transform="matrix(0.995, 0.105, -0.105, 0.995, 907.633, 346.022)"/><rect class="i" width="141.867" height="3.86" transform="matrix(0.995, 0.105, -0.105, 0.995, 906.271, 358.979)"/><g transform="translate(-8 21)"><ellipse class="b" cx="26.797" cy="26.846" rx="26.797" ry="26.846" transform="translate(1042.157 286.523)"/><path class="l" d="M394.256,338.851a32.026,32.026,0,1,0,32.026,32.026A32.026,32.026,0,0,0,394.256,338.851Zm-6.575,49.1-16.413-16.413,4.6-4.6L387.7,378.76,412.655,353.8l4.6,4.6-29.578,29.547Z" transform="translate(674.699 -56.903)"/></g></g></svg>