<svg xmlns="http://www.w3.org/2000/svg" xmlns:xlink="http://www.w3.org/1999/xlink" width="608" height="469" viewBox="0 0 608 469"><defs><style>.a{fill:#fff;}.b{fill:#98c4f9;}.ad,.c,.k{opacity:0.25;mix-blend-mode:overlay;isolation:isolate;}.d{fill:url(#a);}.e{fill:#ff6643;}.f{fill:#092533;}.g{fill:url(#b);}.h{fill:url(#c);}.i{fill:#4d5aff;}.j{fill:url(#d);}.ad,.k,.s{fill:none;stroke-miterlimit:10;}.k{stroke:#fff;}.ad,.k{stroke-width:0.46px;}.l{fill:#6c5be8;}.m{fill:#ff9280;}.n{fill:#350909;}.o{fill:url(#e);}.p{fill:url(#f);}.q{fill:#12006d;}.r{fill:url(#g);}.s{stroke:#092533;stroke-width:0.919px;}.t{fill:url(#h);}.u{fill:url(#i);}.v{fill:url(#j);}.w{fill:url(#k);}.x{fill:url(#l);}.y{fill:#ff7900;}.z{fill:#c64200;}.aa{fill:url(#m);}.ab{fill:url(#n);}.ac{fill:#ffb000;}.ad{stroke:#000;}.ae{clip-path:url(#o);}.af{opacity:0.5;}.ag{fill:url(#p);}.ah{fill:url(#q);}.ai{fill:url(#r);}.aj{fill:url(#s);}</style><linearGradient id="a" x1="0.302" y1="-0.395" x2="0.771" y2="1.667" gradientUnits="objectBoundingBox"><stop offset="0" stop-color="#ffb000"/><stop offset="1" stop-color="#ff7900"/></linearGradient><linearGradient id="b" x1="0.455" y1="0.975" x2="0.547" y2="-0.106" gradientUnits="objectBoundingBox"><stop offset="0" stop-color="#ffc5ae"/><stop offset="1" stop-color="#ea8b6a"/></linearGradient><linearGradient id="c" x1="1.578" y1="0.415" x2="-0.116" y2="0.543" xlink:href="#b"/><linearGradient id="d" x1="0.371" y1="1.049" x2="0.703" y2="-0.592" xlink:href="#b"/><linearGradient id="e" x1="0.481" y1="0.893" x2="0.532" y2="-0.459" xlink:href="#b"/><linearGradient id="f" x1="0.531" y1="1.066" x2="0.464" y2="-0.346" xlink:href="#b"/><linearGradient id="g" x1="0.044" y1="1.044" x2="0.876" y2="-0.385" xlink:href="#b"/><linearGradient id="h" x1="0.373" y1="0.108" x2="0.795" y2="1.414" xlink:href="#b"/><linearGradient id="i" x1="0.228" y1="0.037" x2="1" y2="0.869" xlink:href="#b"/><linearGradient id="j" x1="-0.532" y1="0.201" x2="1.139" y2="0.617" xlink:href="#b"/><linearGradient id="k" x1="0.074" y1="-0.038" x2="0.862" y2="0.848" xlink:href="#b"/><linearGradient id="l" x1="1.391" y1="-0.23" x2="-0.315" y2="1.025" xlink:href="#b"/><linearGradient id="m" x1="0.576" y1="1.109" x2="0.387" y2="-0.909" xlink:href="#b"/><linearGradient id="n" x1="0.422" y1="0.681" x2="0.616" y2="0.013" xlink:href="#b"/><clipPath id="o"><rect class="a" width="608" height="469" rx="10" transform="translate(656 116)"/></clipPath><linearGradient id="p" x1="0.724" y1="0.32" x2="-0.328" y2="0.933" gradientUnits="objectBoundingBox"><stop offset="0" stop-color="#fff" stop-opacity="0"/><stop offset="1" stop-color="#98c4f9"/></linearGradient><linearGradient id="q" x1="0.747" y1="0.455" x2="-0.368" y2="0.777" xlink:href="#p"/><linearGradient id="r" x1="-0.053" y1="-0.099" x2="1.099" y2="1.117" xlink:href="#p"/><linearGradient id="s" x1="0.5" y1="0" x2="1" y2="1.25" xlink:href="#p"/></defs><g transform="translate(-656 -135)"><g transform="translate(1040.509 323.212)"><path class="b" d="M558.921,310.761l-9.7-28.449-16.2,5.518-33.075-97.056-36.876,12.563.111.33-11.894,51.34-16.923,73.039,9.873,21.8,34.819-11.866,12.676-4.32,14.111-4.811,11.521,33.812L554.247,350.1l-11.521-33.812Zm-67.052-8.9-8.365,2.851-16.02,5.46,10.934-54.289,1.027-4.5,16.7,49.024Z" transform="translate(-434.371 -190.773)"/><path class="c" d="M541.848,316.283l11.522,33.812L529.88,340.048,492.34,204.787l-13.771,46.589-6.377,26.388-21.776-22.756,11.894-51.341-.111-.33,36.876-12.563L532.15,287.83l16.195-5.518,9.7,28.449Z" transform="translate(-433.493 -190.773)"/><path class="c" d="M489.421,327.895l-12.676,4.32,1.863-26.121v-4.762l2.579-2.386,1.659-1.533,6.706-1.318S489.135,315.282,489.421,327.895Z" transform="translate(-432.052 -185.011)"/><path class="d" d="M489.808,296.278a10.533,10.533,0,0,0-8.7-3.519c-5.531.461-8.617,2.536-8.8,8.3s1.189,34.8-.074,46.32,6.593,12.673,7.042,4.147-2.887-35.257-.411-39.636.969,4.839,3.566,7.835,5.362-2.3,2.6-9.448S489.808,296.278,489.808,296.278Z" transform="translate(-432.307 -185.195)"/></g><g transform="translate(747.521 351.307)"><g transform="translate(0 21.448)"><path class="e" d="M169.375,256.269a6.556,6.556,0,0,1-1.951-.178c-.353-.148-1.431-.6-10.841-17.4l1.692-.948c3.515,6.273,8.844,15.4,9.973,16.571a101.233,101.233,0,0,0,11.639-.729l.194,1.93C176.941,255.834,172.122,256.269,169.375,256.269Z" transform="translate(-156.582 -237.747)"/></g><path class="f" d="M203.189,263.471v.562s-.515,10.662-8.5,10.2c-.02,0-.039-.005-.059-.005-4.935-.32-11.045-2.623-15.143-4.334-2.576-1.078-4.359-1.922-4.557-1.888-.52.083,6.046,27.392,5.958,28.949a2.6,2.6,0,0,1-.131.66c-.465,1.479-2.089,3.253-3.064,3.4-.1.015-.31-.174-.605-.543-2.969-3.689-14.718-25.121-15.037-32.119-.345-7.69,3.544-12.321,8.815-13.2,3.889-.65,15.26.917,20.956,1.785,2.023.31,3.328.528,3.328.528Z" transform="translate(-156.284 -215.355)"/><g transform="translate(16.097 41.579)"><path class="c" d="M180.356,296.4a2.6,2.6,0,0,1-.131.66c-.465,1.479-2.089,3.253-3.064,3.4-.1.015-.31-.174-.605-.543,4.179-5.9-6.746-34.631-4.37-34.713,1.173-.039,3.767,1.953,6.769,4.137-2.576-1.078-4.359-1.922-4.557-1.888C173.878,267.533,180.443,294.842,180.356,296.4Z" transform="translate(-171.844 -256.375)"/><path class="c" d="M201.643,263.37v.562s-.515,10.662-8.5,10.2c1.57-1.256,1.862-3.467,1.745-6.144-.135-3.1-3-8.4-4.611-11.158,2.023.31,3.328.528,3.328.528Z" transform="translate(-170.835 -256.833)"/></g><path class="f" d="M185.846,230.517a2.248,2.248,0,0,0-.441,1.034s-.009-.015-.028-.049c-.093-.166-.427-.743-.859-1.411-.728-1.125-1.731-2.522-2.337-2.692-.975-.267-3.568,3.011-7.074,3.273a5.778,5.778,0,0,1-.7.016c-3.86-.175-7.953-5.65-4.665-12.1a4.261,4.261,0,0,0,3.511,2.42,2.035,2.035,0,0,1-1.493-2.076c4.2.747,6.391-2.42,10.023-1.266s3.4,3.341,3.4,3.341,2.764-1.1,3.627,2.362C189.5,226.133,186.913,228.859,185.846,230.517Z" transform="translate(-155.928 -217.411)"/><path class="g" d="M185.036,230.985a7.366,7.366,0,0,1-1.353,2.594,3.808,3.808,0,0,1-2.938,1.6c-2.454-.059-4.893-3.351-5.978-5.025,3.506-.262,6.1-3.54,7.074-3.273.606.17,1.609,1.566,2.337,2.692C184.609,230.242,184.943,230.819,185.036,230.985Z" transform="translate(-155.587 -216.894)"/><path class="h" d="M188.117,231.156s-1.843,4.209-2.536,3.288a4.551,4.551,0,0,0-2.361-1.028,7.366,7.366,0,0,0,1.353-2.594c.019.034.028.049.028.049a2.248,2.248,0,0,1,.441-1.034A8.216,8.216,0,0,0,188.117,231.156Z" transform="translate(-155.124 -216.732)"/><path class="i" d="M200.941,266.669c-2.938-.432-10.886-9.073-10.886-12.792a11.719,11.719,0,0,0-.155-1.741c-.612-3.87-2.847-9.543-3.778-13.553-1.081-4.664.476-6.41.476-6.41,3.617-6.222,11.8,6.109,16.474,16l.005.005c1.57,3.332,2.608,6.424,2.705,8.5C206.117,263.671,203.879,267.1,200.941,266.669Z" transform="translate(-154.987 -216.696)"/><path class="c" d="M200.726,266.415c-2.938-.432-10.886-9.073-10.886-12.792a11.719,11.719,0,0,0-.155-1.741l-.019-1.658,2.879-15.091s3.976,4.728,4.612,13.194,9.951,10.31,5.7-.407c1.57,3.332,2.608,6.424,2.705,8.5C205.9,263.417,203.664,266.846,200.726,266.415Z" transform="translate(-154.772 -216.442)"/><path class="i" d="M194.758,247.885a1.051,1.051,0,0,1-.393.17,23.251,23.251,0,0,1-6.988-.005,2.672,2.672,0,0,1-.572-.165c-1.091-.519,0-1.789-.344-4.034s-1.208-8.815,2.134-10.832c3.5-2.109,6.046,5.876,6.163,9.852S195.509,247.25,194.758,247.885Z" transform="translate(-154.967 -216.576)"/><path class="j" d="M195.127,247.257s-.159,9.712-2.012,14.295v.009c-.577,1.425-1.318,2.352-2.274,2.333-4.02-.088-13.048-9.635-13.872-9.984s-4.927.262-4.8-.345,1.73-1.945,3.456-2.589,1.426-.262,12.53,4.84c-.151-.98-.088-5.219-.039-7.618.005-.364.016-.683.019-.946A23.251,23.251,0,0,0,195.127,247.257Z" transform="translate(-155.729 -215.779)"/><path class="i" d="M183.613,301.311c.281,1.731-11.347,13.568-10.741,10.459s4.234-12.966,4.234-12.966c.975-.146,2.6-1.92,3.064-3.4C181.12,297.053,183.375,299.876,183.613,301.311Z" transform="translate(-155.692 -213.144)"/><path class="k" d="M194.2,266.658s-18.665-3.506-22.353-1.81,6.745,31.191,6.745,31.191" transform="translate(-155.79 -214.841)"/><path class="c" d="M192.287,261.552c.354-1.949.621-7.617-.359-9.858-.659-1.512-3.112-2.812-4.635-3.5.005-.364.016-.683.019-.946a23.251,23.251,0,0,0,6.988.005S194.14,256.969,192.287,261.552Z" transform="translate(-154.902 -215.779)"/></g><g transform="translate(1048.144 135)"><path class="l" d="M480.03,198.949a53.826,53.826,0,0,1-1.988,5.834c-1.4,3.592-3.506,8.49-6.614,15.318-.077,3.467-1.182,25.583-1.483,30.674-.039.62-.063.989-.074,1.038-.043.223-.843.65-1.716.868-.825.213-1.707.243-2.085-.262-.78-1.038-6.051-21.952-6.308-26.878s-.519-3.8,5.528-23.415c-1.469.688-10.992.431-10.992.431s1.746,24.021,1.755,24.2a.568.568,0,0,1-.049.165,4.386,4.386,0,0,1-.839,1.43c-.17.17-.345.267-.505.218a2.651,2.651,0,0,1-.639-.573,64.229,64.229,0,0,1-9.558-14.551c-3.2-7.172-3.976-12.186-.95-17.2s18.349-5.4,18.349-5.4c.97.271,3.2.538,5.406,1.061.65.151,1.3.33,1.91.534,3.356,1.115,9.751,2.531,11.128,1.736C480.612,195.249,480.68,196.5,480.03,198.949Z" transform="translate(-441.61 -2.557)"/><path class="e" d="M491.981,183.42c-.607.344-7.647.082-12.4-1.732.025.84.131,2.158.253,3.657.189,2.362.407,5.169.354,7.215-.031,1.46-.2,2.536-.608,2.783a.024.024,0,0,1-.019.009c-.731.422-2.875.218-5.231-.228-1.523-.291-3.133-.683-4.506-1.077-.5-.146-.969-.29-1.391-.431-2.7-.9-6.06-1.246-7.317-1.595-.315-.088-.495-.171-.505-.267-.038-.476,1.169-1.553,1.737-2.677.067-.14.159-.349.262-.616a47.813,47.813,0,0,0,1.533-4.83c.208-.839.286-1.391.1-1.294-.562.3-3.889,6.521-4.277,6.521a7.339,7.339,0,0,1-1.6-.922c-1.337-.906-3.021-2.24-3.06-2.875a.241.241,0,0,1,.078-.218c.78-.736,6.74-10.759,8.9-12.9a9.6,9.6,0,0,1,5.1-2.472,13.746,13.746,0,0,1,3.84.445c4.286,1.073,8.219,3.778,10.46,5.116,2.894,1.726,4.882,1.251,5.614,1.682S492.582,183.071,491.981,183.42Z" transform="translate(-440.861 0.143)"/><path class="m" d="M479.8,191.825c-3.987.049-12.845-.306-17.578-4.1a47.813,47.813,0,0,0,1.533-4.83s9.353,2.836,15.691,1.712C479.639,186.971,479.858,189.779,479.8,191.825Z" transform="translate(-440.482 0.778)"/><path class="c" d="M472.594,169.919c-.155,1.659-.741,3.444-2.546,3.3a3.4,3.4,0,0,1-3.209-3.249,8.886,8.886,0,0,1,1.915-.5A13.746,13.746,0,0,1,472.594,169.919Z" transform="translate(-440.23 0.88)"/><path class="n" d="M471.76,166.951a7.1,7.1,0,0,0-1.3-2.681c-.7,1.144-3.413,1.731-5.5,1.882a8.38,8.38,0,0,1-2.274-.063,6.415,6.415,0,0,1,5.664-8.384c2.545-.174,4.839,1.722,4.146,4.616C474.781,164.576,471.76,166.951,471.76,166.951Z" transform="translate(-440.472 0.661)"/><path class="o" d="M471.627,166.61a9.645,9.645,0,0,1-.683,1.663h-.005a2.345,2.345,0,0,1-3.195,1.275,1.767,1.767,0,0,1-.17-.077,4.934,4.934,0,0,1-2.5-2.847,6.413,6.413,0,0,1-.253-.814c2.09-.151,4.8-.737,5.5-1.882l.116.131A7.447,7.447,0,0,1,471.627,166.61Z" transform="translate(-440.34 0.79)"/><path class="p" d="M471.266,170.792c-.256,1.6-2.894,1.514-3.18.476-.151-.538-.321-1.057-.451-1.435-.116-.353-.2-.581-.2-.581v-.005a1.767,1.767,0,0,0,.17.077,2.345,2.345,0,0,0,3.195-1.275h.005c-.179.36.3.81.461,1.659A3.1,3.1,0,0,1,471.266,170.792Z" transform="translate(-440.197 0.866)"/><path class="q" d="M458.618,231.016c-.257,1.988-10.542,9.766-10.367,8.384s5.406-13.277,5.406-13.277a2.651,2.651,0,0,0,.639.573c.52.15,1.179-1.169,1.344-1.649C457.022,226.783,458.851,229.242,458.618,231.016Z" transform="translate(-441.247 -0.686)"/><path class="q" d="M464.857,265.5c-2.42-5.189,0-16.191,0-16.191.776,1.037,3.715-.175,3.8-.606.011-.049.035-.418.074-1.038,0,0,.388,5.271.848,9.737S467.277,270.684,464.857,265.5Z" transform="translate(-440.397 0.551)"/><path class="c" d="M464.768,201.766c-1.469.688-10.992.431-10.992.431s1.746,24.021,1.755,24.2a.568.568,0,0,1-.049.165,4.386,4.386,0,0,1-.839,1.43c-1.755-8.219-5.256-23.978-2.464-26.683,3.574-3.457,13.253-4.379,13.393-3.623A19.989,19.989,0,0,1,464.768,201.766Z" transform="translate(-441.089 -2.197)"/><path class="r" d="M457.835,191.135a1.141,1.141,0,0,0-.17.694c.209.8-.9,10.885-.494,11.923a19.5,19.5,0,0,1,.4,6.4c-.232,2.076-4.552,3.341-4.552,1.557s.519-5.993.693-7.608-1.44-13.277-1.008-14.892a18.574,18.574,0,0,1,2.08-3.947c.383-.6.664-1,.664-1,.063,1.014,4.306,3.8,4.66,3.8A19.213,19.213,0,0,0,457.835,191.135Z" transform="translate(-441.007 0.07)"/><path class="c" d="M478.7,198.894a8.984,8.984,0,0,1-5.543-2.472,27.293,27.293,0,0,0-7.22-4.564c.65.151,1.3.33,1.91.534,3.356,1.115,9.751,2.531,11.128,1.736C479.281,195.194,479.349,196.446,478.7,198.894Z" transform="translate(-440.279 0.883)"/><path class="c" d="M476.665,204.06c-1.4,3.592-3.506,8.49-6.614,15.318-.077,3.467-1.182,25.583-1.483,30.674-.039.62-.063.989-.074,1.038-.043.223-.843.65-1.716.868.2-7.458-.062-23.692,1.2-28.522C469.484,217.656,476.243,204.855,476.665,204.06Z" transform="translate(-440.233 -1.835)"/><path class="c" d="M469.661,193.7c-.5-.146-.969-.29-1.391-.431-2.7-.9-6.06-1.246-7.317-1.595-.315-.088-.495-.171-.505-.267-.038-.476,1.169-1.553,1.737-2.677s2.459-7.046,1.9-6.74-3.889,6.521-4.277,6.521a7.339,7.339,0,0,1-1.6-.922c.082-.14.174-.281.276-.431,2.071-3.054,5.47-6.856,6.047-10.139.461-2.42,1.154-1.038,1.038,2.076C465.458,181.89,465.309,190.444,469.661,193.7Z" transform="translate(-440.702 0.444)"/><path class="c" d="M478.589,194.8a.024.024,0,0,1-.019.009c-.731.422-2.875.218-5.231-.228,4.214-4.223,1.914-15.663,2.575-15.075a17.064,17.064,0,0,0,2.676,1.638C478.677,184.254,479.933,193.976,478.589,194.8Z" transform="translate(-439.874 0.537)"/><path class="c" d="M460,188.051a19.213,19.213,0,0,0-2.274,3.084c-.015-.257-.034-.495-.058-.708-.131-1.236-2.056-3.924-2.992-5.169.383-.6.664-1,.664-1C455.4,185.268,459.644,188.051,460,188.051Z" transform="translate(-440.895 0.853)"/><path class="c" d="M470.444,164.06c-1.037,2.294-4.087,2.56-5.366,2.565a6.413,6.413,0,0,1-.253-.814c2.09-.151,4.8-.737,5.5-1.882Z" transform="translate(-440.34 0.883)"/><path class="c" d="M471.262,169.707a1.832,1.832,0,0,1-.728.329,4.45,4.45,0,0,1-2.9-.2c-.116-.353-.2-.581-.2-.581v-.005a1.767,1.767,0,0,0,.17.077,2.345,2.345,0,0,0,3.195-1.275h.005C470.621,168.408,471.1,168.858,471.262,169.707Z" transform="translate(-440.197 0.922)"/><line class="s" y2="215.225" transform="translate(44.854)"/><path class="t" d="M493.332,180.634c-.008.058-.023.116-.034.17-.572,2.6-2.656,2.88-3.05,2.71s-1.43-1.362-2.336-5.566c-.02-.083-.035-.166-.054-.252,0,0-1.96-5.024-2.88-7.439-2.274-1.348-2.705-.8-3.026-2.356a4.542,4.542,0,0,1,1.271-3.859c.577-.287,3.166,2.134,3.515,3.025S493.852,177.87,493.332,180.634Z" transform="translate(-439.406 0.361)"/><path class="c" d="M492.986,180.081c-.572,2.6-2.656,2.88-3.05,2.71s-1.43-1.362-2.336-5.566a8.867,8.867,0,0,0,2.438,3.307A2.112,2.112,0,0,0,492.986,180.081Z" transform="translate(-439.094 0.862)"/></g><g transform="translate(909.162 362.885)"><path class="e" d="M426.366,313.411l-5.556-28.381q-6.169-31.486-23.784-45.943t-43.539-9.377q-25.916,5.077-36.751,24.986t-4.65,51.511l5.576,28.487q6.146,31.377,23.765,45.832a45.941,45.941,0,0,0,16.38,8.719q12.226,3.587,27.26.639a65.076,65.076,0,0,0,14.218-4.4,46.34,46.34,0,0,0,22.431-20.565Q432.555,345,426.366,313.411ZM391.678,351.5q-2.851,8.728-12.06,10.532-9.535,1.868-15.506-5.358-4.074-4.925-6.964-14.619v-.011c0-.009,0-.02-.008-.034Q355.8,337.52,354.723,332l-7.8-39.844q-2.742-15.7-.02-24.235t12.04-10.362q7.108-1.4,12.259,2.39h0a17.864,17.864,0,0,1,3.283,3.181q6.015,7.441,9.3,24.254l7.55,38.554Q394.529,342.773,391.678,351.5Z" transform="translate(-309.838 -228.389)"/><path class="c" d="M392.011,355.191c1.6,2.463,3.728,19.211,4.82,28.652a65.076,65.076,0,0,1-14.218,4.4q-15.033,2.939-27.26-.639a24.191,24.191,0,0,0,.9-2.342c5.087-15.541-1.27-43.582-1.562-44.842q2.889,9.695,6.964,14.619,5.977,7.229,15.506,5.358,9.208-1.8,12.06-10.532t-.335-25.568l-7.55-38.554q-3.288-16.808-9.3-24.254a17.864,17.864,0,0,0-3.283-3.181c12.263,2.4,22.224,40.374,26.373,58.688S399.62,343.786,392.011,355.191Z" transform="translate(-307.383 -226.752)"/><path class="l" d="M357.259,343.247s.8,2.079,4.972,3.232,8.094-5.31,10.859-3.232,7.192,10.695,11.085,9.383,5.046,19.428,3.2,21.732-3.169-16.322-8.037-15.765-1.181,14.612-3.947,17.148-1.613-6.223-4.608-7.835,3.226,70.516-1.384,71.668-7.6-3.225-5.761-18.665-.461-68.674-3.226-71.439S357.824,346.189,357.259,343.247Z" transform="translate(-307.243 -222.127)"/></g><g transform="translate(955.009 135)"><line class="s" y2="238.627" transform="translate(3.024)"/><g transform="translate(0 122.319)"><path class="q" d="M413.07,146.976s-3.672-10.067-3.37-10.845,4.337-2.248,4.632-1.815,2.843,8.253,2.411,8.814S413.07,146.976,413.07,146.976Z" transform="translate(-350.222 -127.974)"/><path class="u" d="M354.968,134a6.593,6.593,0,0,1,3.238,3.35c1,2.42.608-6.308.608-6.308l-1.08-.995Z" transform="translate(-353.216 -128.203)"/><path class="v" d="M353.868,134.076a32.578,32.578,0,0,0,3.285,2.227c.475.13,1.392-5.358.977-6.222s-1.939-1.729-2.927-1.168S353.408,133.736,353.868,134.076Z" transform="translate(-353.283 -128.275)"/><path class="w" d="M361.268,134.727s-2.237-5.185-3.214-6.092-2.792.258-2.922.734,2.17.821,2.922,1.6-1.28,6.524.664,8.555S361.268,134.727,361.268,134.727Z" transform="translate(-353.207 -128.299)"/><path class="x" d="M410.273,147.807a12.467,12.467,0,0,0,2.419-1.641c.432-.562-.346-2.679.908-4.624s3.931-1.382,4.579.95-1.036,5.271-1.813,6.18-6.093,4.709-6.093,4.709" transform="translate(-350.19 -127.639)"/><path class="y" d="M414.562,152.68a4.65,4.65,0,0,1-1.1,1.741c-2.522,2.948-9.47,8.718-22,15.313a31.18,31.18,0,0,0-.586,3.064,50.092,50.092,0,0,0-.3,9.582c.038.766.086,1.512.14,2.23.228,3.142.538,5.737.456,7.24a1.99,1.99,0,0,1-.378,1.3,7.5,7.5,0,0,1-.888.67c-6.255,4.014-17.641-1.984-19.484-3.787a.874.874,0,0,1-.251-.34c-.321-1.212.921-2.507,1.614-4.583a14.036,14.036,0,0,0,.349-2.225c.33-3.195.616-8.912.718-13.212a42.371,42.371,0,0,0-.082-5.485.046.046,0,0,1-.005-.02c-.344-1.411-10.833-17.257-13.979-22.873a6.83,6.83,0,0,1-.888-1.9c.117-1.266,2.537-5.76,3.056-5.7a4.785,4.785,0,0,1,.891,1.081c2.43,3.375,8.966,13.577,10.168,14.877,1.125,1.216,6.851,7.244,9.306,9.829.694.722,1.125,1.178,1.125,1.178a29.274,29.274,0,0,0,4-.354c11.788-1.818,23.371-10.071,26.4-12.364.5-.379.767-.592.767-.592S414.824,151.066,414.562,152.68Z" transform="translate(-353.055 -128.004)"/><path class="z" d="M383.935,164.535c-4.02.65-4.032-4.582-3.823-6.389.694.722,1.125,1.178,1.125,1.178a29.274,29.274,0,0,0,4-.354C385.731,161.031,385.331,164.313,383.935,164.535Z" transform="translate(-351.844 -126.666)"/><path class="q" d="M388.132,154.04a3.919,3.919,0,0,1-3.1.3,11.476,11.476,0,0,1-3.53-1.727,6.4,6.4,0,0,0-1.163,3.67c-2.852-2.463-3.545-4.926-1.125-5.833-.995-4.321,1.125-5.228,4.665-5.441s4.363,3.414,6.482,3.327C390.488,150.268,389.941,152.969,388.132,154.04Z" transform="translate(-351.97 -127.385)"/><path class="aa" d="M388,153.645c-.039.349-.1.752-.179,1.183-.476,2.526-1.717,6.052-3.589,5.858a1.209,1.209,0,0,1-.306-.059,5.8,5.8,0,0,1-3.223-3.365,8.938,8.938,0,0,1-.495-1.377,7.624,7.624,0,0,1,.315-1.925,5.341,5.341,0,0,1,.848-1.746,11.476,11.476,0,0,0,3.53,1.727A3.919,3.919,0,0,0,388,153.645Z" transform="translate(-351.835 -126.991)"/><path class="ab" d="M384.2,161.913c-.019.917-.144,1.635-.755,1.678-1.237.088-2.882-1.528-2.794-3.283.03-.6.039-1.231.039-1.813s-.009-1.12-.019-1.493a5.8,5.8,0,0,0,3.223,3.365,1.209,1.209,0,0,0,.306.059C384.2,160.934,384.219,161.448,384.2,161.913Z" transform="translate(-351.81 -126.729)"/><path class="z" d="M411.712,151.971a4.65,4.65,0,0,1-1.1,1.741,46.156,46.156,0,0,0-.616-6.478c.5-.379.767-.592.767-.592S411.974,150.358,411.712,151.971Z" transform="translate(-350.205 -127.295)"/><path class="z" d="M361.849,134.778c-1.842,1.576-2.739,5.009-3.059,6.521a6.83,6.83,0,0,1-.888-1.9c.117-1.266,2.537-5.76,3.056-5.7A4.785,4.785,0,0,1,361.849,134.778Z" transform="translate(-353.055 -128.004)"/><path class="ac" d="M389.982,182.744c-4.122.6-11.875,1.125-18.582-1.721.33-3.195.616-8.912.718-13.212,3.321,1.406,10.492,3.908,18.024,3.122A55.342,55.342,0,0,0,389.982,182.744Z" transform="translate(-352.317 -126.137)"/><path class="c" d="M389.276,192.242c-6.741,4.324-19.435-2.973-19.735-4.127-.321-1.212.921-2.507,1.614-4.583a14.036,14.036,0,0,0,.349-2.225c.33-3.195.616-8.912.718-13.212a42.371,42.371,0,0,0-.082-5.485,119.544,119.544,0,0,1,3.592,14.7c1.213,7.259.951,10.716,4.5,13.049C382.3,191.722,386.09,192.441,389.276,192.242Z" transform="translate(-352.421 -126.422)"/><path class="b" d="M405.3,210.855c0,3-10.832,19.6-13.076,23.008-.257.393-.4.612-.4.612a14.511,14.511,0,0,1-2.546-.548c-.8-.276-1.483-.654-1.483-1.178a3.506,3.506,0,0,1,.054-.489c.383-2.313,2.763-10.682,5.818-21.748-1.609-1.959-12.9-9.45-12.9-9.45a.145.145,0,0,0-.011.028c-.489,1.131-16.166,37.381-17.946,40.761a1.543,1.543,0,0,1-.135.233c-.8,1.038-4.146,1.149-4.379-1.038v-.01c-.96-9.164,6.943-36.8,10.624-49.028.659-2.192,1.182-3.889,1.5-4.892,1.843,1.8,13.228,7.8,19.484,3.787a7.5,7.5,0,0,0,.888-.67,1.99,1.99,0,0,0,.378-1.3c.117.127.238.263.359.407C395.882,194.324,405.3,207.969,405.3,210.855Z" transform="translate(-353.039 -125.081)"/><path class="q" d="M364.176,244.123c-.431,2.158-11.84,8.554-10.8,4.684.844-3.137,4.014-8.612,5.183-10.57v.01c.233,2.186,3.574,2.076,4.379,1.038a1.543,1.543,0,0,0,.135-.233C363.653,240.72,364.457,242.727,364.176,244.123Z" transform="translate(-353.307 -122.284)"/><path class="q" d="M394.626,242.678c-.869.431-12.1-3.889-11.841-5.358s3.715-7.4,3.715-7.4a3.506,3.506,0,0,0-.054.489c0,1.266,4.029,1.727,4.029,1.727s.146-.218.4-.612C391.377,236.006,395.435,242.271,394.626,242.678Z" transform="translate(-351.694 -122.739)"/><path class="ad" d="M379.084,199.163s-12.445,24.438-17.111,41.212" transform="translate(-352.833 -124.422)"/><path class="ad" d="M380.981,199.163s13.827,9.074,14.346,10.543-7.173,21.893-7.173,21.893" transform="translate(-351.793 -124.422)"/><path class="c" d="M390.963,189.334c-1.522,6.08-10.338,4.428-14.847,3.259a26.772,26.772,0,0,0-7.758-.587c.659-2.192,1.182-3.889,1.5-4.892,1.843,1.8,13.228,7.8,19.484,3.787a7.5,7.5,0,0,0,.888-.67,1.99,1.99,0,0,0,.378-1.3C390.721,189.054,390.842,189.19,390.963,189.334Z" transform="translate(-352.483 -125.081)"/><path class="c" d="M388.1,233.376c-.8-.276-1.483-.654-1.483-1.178a3.506,3.506,0,0,1,.054-.489c.383-2.313,2.763-10.682,5.818-21.748-1.609-1.959-12.9-9.45-12.9-9.45s.921-3.108,1.959-3.341,13.019,10.081,14.343,12.215C397.059,211.259,388.9,226.563,388.1,233.376Z" transform="translate(-351.869 -124.531)"/><path class="c" d="M387.981,153.645c-.039.349-.1.752-.179,1.183-3.021,1.537-5.984-1.925-6.338-1.882-.2.024-.621.548-.96,1.014a5.341,5.341,0,0,1,.848-1.746,11.476,11.476,0,0,0,3.53,1.727A3.919,3.919,0,0,0,387.981,153.645Z" transform="translate(-351.819 -126.991)"/><path class="c" d="M384.2,161.913c-1.992-.485-3.093-2.483-3.51-3.418,0-.587-.009-1.12-.019-1.493a5.8,5.8,0,0,0,3.223,3.365,1.209,1.209,0,0,0,.306.059C384.2,160.934,384.218,161.448,384.2,161.913Z" transform="translate(-351.809 -126.729)"/><path class="c" d="M389.239,170.929a50.092,50.092,0,0,0-.3,9.582c-.786-3.313-1.475-6.871-.67-8.932a24.026,24.026,0,0,1,1.557-3.714A31.18,31.18,0,0,0,389.239,170.929Z" transform="translate(-351.413 -126.134)"/></g></g><g transform="translate(774.36 122)"><g transform="translate(0 206.769)"><path class="l" d="M303.486,202.453l-37.308-6.411-.057.334-82.389,92.76-1.7,23.189,11.817,2.03,20.453,3.515,27.454,4.719,2.609.446L242.4,334.475l-.912,5.29-3,17.48,24.283,4.175,13.026,2.237,5.876-34.21,16.389,2.812L303,303.47l-16.389-2.812Zm-46.574,47.534L249.3,294.248l-9.1-1.566L220.3,289.263l11.023-13.154,2.521-3.012,21.015-25.083,2.972-3.365Z" transform="translate(-182.029 -196.042)"/><path class="c" d="M240.079,317.754l-27.454-4.719c3.234-10.682,7.269-25.4,6-28.608l19.907,3.418a19.956,19.956,0,0,1,2.555,9.058C241.568,304,240.511,311.252,240.079,317.754Z" transform="translate(-180.355 -191.206)"/><path class="b" d="M219.615,284.784s2.993-4.155,9.734-2.856,7.26,9.593,4.321,18.754-3.63,41.134-2.248,51.5.519,15.21-2.764,15.555-4.84-12.445-2.938-21.431,1.728-17.284-1.383-15.9-.519,4.84-2.075,7.952-6.222,1.21-6.049-4.667S225.783,289.625,219.615,284.784Z" transform="translate(-180.159 -191.356)"/><path class="c" d="M282.428,300.326l16.389,2.812-4.946,28.788-16.389-2.812-5.876,34.209-13.025-2.236,22.893-142.84L299.3,202.12Z" transform="translate(-177.84 -195.709)"/></g><line class="s" y2="222.636" transform="translate(93.435 13)"/></g><g transform="translate(805.887 286.767)"><path class="y" d="M337.19,162.96a6.74,6.74,0,1,1-6.74-6.741A6.74,6.74,0,0,1,337.19,162.96Z" transform="translate(-205.804 -156.219)"/><path class="l" d="M559.55,244.176a6.741,6.741,0,1,1-6.741-6.741A6.741,6.741,0,0,1,559.55,244.176Z" transform="translate(-193.638 -151.775)"/><path class="b" d="M225.4,197.515a6.741,6.741,0,1,1-6.742-6.741A6.741,6.741,0,0,1,225.4,197.515Z" transform="translate(-211.921 -154.328)"/><path class="e" d="M330.8,392.958a6.741,6.741,0,1,1-6.741-6.741A6.742,6.742,0,0,1,330.8,392.958Z" transform="translate(-206.154 -143.634)"/><path class="y" d="M518.662,181.983a2.6,2.6,0,1,1-2.6-2.6A2.6,2.6,0,0,1,518.662,181.983Z" transform="translate(-195.422 -154.952)"/><path class="b" d="M330.371,220.366a2.6,2.6,0,1,1-2.6-2.6A2.6,2.6,0,0,1,330.371,220.366Z" transform="translate(-205.724 -152.851)"/><path class="l" d="M256.63,186.99a2.6,2.6,0,1,1-2.6-2.6A2.6,2.6,0,0,1,256.63,186.99Z" transform="translate(-209.759 -154.678)"/></g><g class="ae" transform="translate(0 19)"><g class="af" transform="translate(689.419 185.04)"><path class="ag" d="M573.161,50.93s-8.646-8.631-25.037-5.178-27.91,29.343-39.843,35.1-35.461,22.744-37.218,37.264c22.984-19.139,31.614-10.8,46.574-13.1s16.11-19.851,37.688-19.275,44.592,27.385,66.168,12.4,46.893-32.824,26.467-47.5S586.107,58.41,573.161,50.93Z" transform="translate(-50.695 -70.208)"/><path class="ah" d="M636.208,196.041s-35.1,38.508-42.578,83.657-43.458,42.273-55.676,63.561S496.616,366.274,483.27,374.9s-43.753-6.329-48.976,0,27.274,16.11,69.427,16.686,50.207-32.221,87.607-36.824,74.8-20.714,88.033-81.7S670.155,179.433,636.208,196.041Z" transform="translate(-54.457 -28.145)"/><path class="ai" d="M80.787,213.706s35.1,38.508,42.578,83.657,43.458,42.272,55.676,63.561,41.337,23.015,54.684,31.646,43.752-6.329,48.976,0-27.274,16.11-69.427,16.686-50.208-32.222-87.607-36.825-74.8-20.713-88.033-81.7S46.839,197.1,80.787,213.706Z" transform="translate(-113.781 -30.304)"/><path class="aj" d="M182.618,107.484s-2.251,12.008,9.843,23.6,39.972,6.5,51.453,13.11,38.779,16.459,51.762,9.722c-28.767-8.187-26.744-20.019-37.081-31.075s-25.478-2.11-37.17-20.254-2.532-52.268-27.075-61.635S140.8,20.733,140.2,45.875,181.495,92.574,182.618,107.484Z" transform="translate(-60.202 -108.378)"/></g></g></g></svg>