<svg xmlns="http://www.w3.org/2000/svg" width="77" height="77" viewBox="0 0 77 77"><defs><style>.a{fill:#f4f5f9;}.b{fill:#465aff;}</style></defs><g transform="translate(-343 -210)"><circle class="a" cx="38.5" cy="38.5" r="38.5" transform="translate(343 210)"/><path class="b" d="M375.63,268.464l-16.146-9.18a1,1,0,0,1,.986-1.734l15.627,8.885,6.876-4.331a1,1,0,0,1,1.063,1.688l-7.381,4.648a1,1,0,0,1-1.024.023Zm0-3.99-16.146-9.18a1,1,0,0,1,.986-1.734l15.627,8.886,6.876-4.332a1,1,0,0,1,1.063,1.688l-7.381,4.649a1,1,0,0,1-1.024.022Zm10.383-2.537a1,1,0,0,1-.516-.874V249.675l-15.122-8.6-8.458,5.327,14.179,8.062,6.876-4.331a1,1,0,0,1,1.063,1.688l-7.381,4.648a1,1,0,0,1-1.024.023l-16.145-9.18a1,1,0,0,1-.039-1.712l10.372-6.533.007,0L375,235.8l.006,0,10.365-6.529a1,1,0,0,1,1.023-.023l16.146,9.18a1,1,0,0,1,.039,1.712l-7.381,4.648a1,1,0,1,1-1.062-1.687l5.971-3.762-14.18-8.061-8.457,5.327,14.689,8.352a1.111,1.111,0,0,1,.111.072l.02.015c.027.022.052.043.076.067l.017.016a.977.977,0,0,1,.08.091l.008.012c.017.022.033.044.048.067,0,.006.006.013.01.018l.019.033c.013.025.026.05.038.077l.014.031a.933.933,0,0,1,.038.11h0a.923.923,0,0,1,.024.121c0,.007,0,.016,0,.024,0,.033.005.067.006.1,0,.006,0,.012,0,.018V257.8a1,1,0,0,1-.465.844l-5.187,3.266a.994.994,0,0,1-1.013.03ZM372.29,239.872l14.7,8.356a1,1,0,0,1,.5.867v10.162l3.191-2.011v-9.611l-1.122.707a1,1,0,0,1-1.062-1.688l1.241-.782-14.179-8.061Zm3.34,20.614L359.484,251.3a1,1,0,0,1,.986-1.734l15.627,8.886,6.876-4.331a1,1,0,1,1,1.063,1.688l-7.381,4.649a1,1,0,0,1-1.024.023Zm18.2-4.041a1,1,0,0,1,.313-1.376l7.381-4.648a1,1,0,0,1,1.062,1.688l-7.381,4.648a1,1,0,0,1-1.375-.312Zm0-3.99a1,1,0,0,1,.313-1.375l7.381-4.649a1,1,0,0,1,1.062,1.688l-7.381,4.648a.986.986,0,0,1-.53.154A1,1,0,0,1,393.828,252.455Zm0-3.99a1,1,0,0,1,.313-1.375l7.381-4.648a1,1,0,0,1,1.062,1.688l-7.381,4.649a1,1,0,0,1-1.375-.313Z"/></g></svg>