<svg xmlns="http://www.w3.org/2000/svg" width="42" height="42" viewBox="0 0 42 42"><defs><style>.a{fill:#f3655f;}.b{fill:#fff;}</style></defs><g transform="translate(0 0.4)"><g transform="translate(0 -0.4)"><rect class="a" width="42" height="42" rx="10"/></g><g transform="translate(8.4 9.96)"><path class="b" d="M322.73,133.46a2.73,2.73,0,1,0-2.73-2.73A2.731,2.731,0,0,0,322.73,133.46Z" transform="translate(-303.9 -124.36)"/><path class="b" d="M55.625,64H33.575A1.589,1.589,0,0,0,32,65.609v18.62a1.589,1.589,0,0,0,1.575,1.609h22.05A1.589,1.589,0,0,0,57.2,84.229V65.609A1.589,1.589,0,0,0,55.625,64Zm-5.8,11.244a.962.962,0,0,0-.72-.353,1.106,1.106,0,0,0-.72.324l-1.052.9a1.049,1.049,0,0,1-.647.267.925.925,0,0,1-.619-.233c-.056-.051-.158-.148-.242-.233L42.8,72.6a1.235,1.235,0,0,0-.939-.427,1.272,1.272,0,0,0-.945.444L33.8,81.3V66.485a.745.745,0,0,1,.737-.665H54.658a.717.717,0,0,1,.726.682L55.4,81.312Z" transform="translate(-32 -64)"/></g></g></svg>