<svg xmlns="http://www.w3.org/2000/svg" width="19" height="26" viewBox="0 0 19 26"><defs><style>.a{fill:#dee6ef;}</style></defs><g transform="translate(-7 -3)"><path class="a" d="M22.05,12H22V8.5a5.5,5.5,0,1,0-11,0V12h0a4,4,0,0,0-4,4v9.1A4,4,0,0,0,11,29H22.1A4,4,0,0,0,26,25.05V16a4,4,0,0,0-3.95-4ZM13,8.5a3.5,3.5,0,1,1,7,0V12H13ZM24,25.05A2,2,0,0,1,22.05,27H11a2,2,0,0,1-2-1.95V16a2,2,0,0,1,2-2H22.1A2,2,0,0,1,24,16Z"/><path class="a" d="M16.5,17A3.5,3.5,0,1,0,20,20.5,3.5,3.5,0,0,0,16.5,17Zm0,5A1.5,1.5,0,1,1,18,20.5,1.5,1.5,0,0,1,16.5,22Z"/></g></svg>