<svg xmlns="http://www.w3.org/2000/svg" xmlns:xlink="http://www.w3.org/1999/xlink" width="240.556" height="211" viewBox="0 0 240.556 211"><defs><style>.a{opacity:0.7;fill:url(#a);}.b,.e{opacity:0.5;}.b{fill:url(#b);}.c,.d{fill:url(#c);}.d{opacity:0.3;}.f{fill:#fff;}.g{fill:red;}</style><linearGradient id="a" x1="1.112" y1="-0.229" x2="0.146" y2="1" gradientUnits="objectBoundingBox"><stop offset="0" stop-color="#ff20b5"/><stop offset="1" stop-color="red"/></linearGradient><linearGradient id="b" x1="1.124" y1="1.357" x2="0.135" y2="0.101" xlink:href="#a"/><linearGradient id="c" x1="0.5" y1="0" x2="0.5" xlink:href="#a"/></defs><g transform="translate(-841 -253)"><circle class="a" cx="96.5" cy="96.5" r="96.5" transform="translate(864 271)"/><circle class="b" cx="67.5" cy="67.5" r="67.5" transform="translate(893 300)"/><circle class="c" cx="6" cy="6" r="6" transform="translate(910 253)"/><circle class="c" cx="4" cy="4" r="4" transform="translate(841 308)"/><circle class="d" cx="14" cy="14" r="14" transform="translate(854 341)"/><g transform="translate(177 -42)"><g class="e" transform="translate(-0.802 10.198)"><g transform="translate(697.502 316.141)"><rect class="c" width="2.576" height="15.357"/></g><g transform="translate(691.111 322.532)"><rect class="c" width="15.357" height="2.576"/></g></g><g class="e" transform="translate(188.184 1.184)"><g transform="translate(710.891 332.834)"><rect class="c" width="1.575" height="9.386"/></g><g transform="translate(706.985 336.74)"><rect class="c" width="9.386" height="1.574" transform="translate(0 0)"/></g></g><g transform="translate(-35 86)"><rect class="c" width="2.978" height="17.754" transform="translate(730.247 349.526)"/><rect class="c" width="17.754" height="2.978" transform="translate(722.859 356.915)"/></g></g><g class="e" transform="translate(746.489 248.489)"><path class="c" d="M324.964,99.32a6.6,6.6,0,1,1,6.6-6.6A6.607,6.607,0,0,1,324.964,99.32Zm0-10.75a4.151,4.151,0,1,0,4.151,4.151A4.155,4.155,0,0,0,324.964,88.571Z"/></g><g class="e" transform="translate(634 179)"><path class="c" d="M326.453,102.3a8.088,8.088,0,1,1,8.088-8.088A8.1,8.1,0,0,1,326.453,102.3Zm0-13.176a5.088,5.088,0,1,0,5.088,5.088A5.093,5.093,0,0,0,326.453,89.123Z"/></g><g transform="translate(696.514 -450.291) rotate(45)"><g transform="translate(762.459 349.526)"><rect class="f" width="5.22" height="84.146"/></g><g transform="translate(722.859 388.993)"><rect class="f" width="84.419" height="5.218"/></g></g><g class="e" transform="translate(995.682 257.682)"><path class="g" d="M115.811,224a15.45,15.45,0,0,0-11.507,5.117,1.181,1.181,0,1,0,1.759,1.575,13.137,13.137,0,0,1,19.5,0,1.181,1.181,0,0,0,1.759-1.575A15.45,15.45,0,0,0,115.811,224Z" transform="translate(-88.652 -190.937)"/><path class="g" d="M27.159,0A27.159,27.159,0,1,0,54.318,27.159,27.189,27.189,0,0,0,27.159,0Zm0,51.956a24.8,24.8,0,1,1,24.8-24.8A24.825,24.825,0,0,1,27.159,51.956Z"/><path class="g" d="M218.627,128a1.18,1.18,0,0,0-1.181,1.181,3.542,3.542,0,1,1-7.085,0,1.181,1.181,0,0,0-2.362,0,5.9,5.9,0,0,0,11.808,0A1.18,1.18,0,0,0,218.627,128Z" transform="translate(-177.299 -109.107)"/><path class="g" d="M91.808,129.181a1.181,1.181,0,0,0-2.362,0,3.542,3.542,0,1,1-7.085,0,1.181,1.181,0,0,0-2.362,0,5.9,5.9,0,0,0,11.808,0Z" transform="translate(-68.192 -109.107)"/></g></g></svg>