<svg xmlns="http://www.w3.org/2000/svg" width="17.76" height="10.36" viewBox="0 0 17.76 10.36"><defs><style>.a{fill:#d8d8d8;}</style></defs><g transform="translate(-64 -144)"><path class="a" d="M81.718,149.189c-2.1-2.414-4.99-5.189-8.838-5.189a8.193,8.193,0,0,0-4.482,1.378,23.929,23.929,0,0,0-4.352,3.756L64,149.18l.31.319c2.548,2.609,4.75,4.861,8.57,4.861a8.81,8.81,0,0,0,5-1.683,24.469,24.469,0,0,0,3.621-3.182l.254-.254ZM72.88,152.88a3.7,3.7,0,1,1,3.7-3.7A3.7,3.7,0,0,1,72.88,152.88Z"/><path class="a" d="M209.961,208.869a1.6,1.6,0,0,1,.254-.869,2.227,2.227,0,1,0,2.22,2.229h0a1.6,1.6,0,0,1-.869.254A1.617,1.617,0,0,1,209.961,208.869Z" transform="translate(-137.34 -61.04)"/></g></svg>