<svg xmlns="http://www.w3.org/2000/svg" width="20.022" height="19.995" viewBox="0 0 20.022 19.995"><defs><style>.a{fill:#fff;}</style></defs><path class="a" d="M56.46,659.994a.654.654,0,0,1-.16-.021c-6.313-1.583-5.89.2-9.4-.741a7.878,7.878,0,0,1-2.861-1.456,9.771,9.771,0,0,0,10.742-11.291,7.531,7.531,0,0,1,1.967,3.624c.849,3.935-1.307,3.27.248,9.25A.529.529,0,0,1,56.46,659.994Zm-6.276-18.111a7.651,7.651,0,0,0-12.433,3.932c-.621,2.333-.022,3.417-.022,5.168a20.45,20.45,0,0,1-.739,4.409.529.529,0,0,0,.633.538,10.182,10.182,0,0,1,5.609-.327C51.219,657.766,56.343,647.259,50.184,641.883Z" transform="translate(-36.991 -639.999)"/></svg>