<svg xmlns="http://www.w3.org/2000/svg" width="42" height="42" viewBox="0 0 42 42"><defs><style>.a{fill:#16b95f;}.b{fill:#fff;}</style></defs><g transform="translate(0 0.4)"><g transform="translate(0 -0.4)"><g transform="translate(0 0)"><rect class="a" width="42" height="42" rx="10"/></g></g><g transform="translate(11.455 8.774)"><g transform="translate(14.207 0)"><path class="b" d="M300.039,2.294V6.45h4.22A28.933,28.933,0,0,0,300.039,2.294Z" transform="translate(-300.039 -2.294)"/></g><g transform="translate(0 0.372)"><g transform="translate(0 0)"><path class="b" d="M2.077,25A2.142,2.142,0,0,1,0,22.8V2.2A2.142,2.142,0,0,1,2.077,0H12.462V5.127a.713.713,0,0,0,.692.732H18V22.8A2.142,2.142,0,0,1,15.923,25Zm.692-6.641a.713.713,0,0,0,.692.732H9a.734.734,0,0,0,0-1.465H3.462A.713.713,0,0,0,2.769,18.359Zm0-4.395a.713.713,0,0,0,.692.732h8.308a.734.734,0,0,0,0-1.465H3.462A.713.713,0,0,0,2.769,13.965Zm0-4.395a.713.713,0,0,0,.692.732H14.538a.734.734,0,0,0,0-1.465H3.462A.713.713,0,0,0,2.769,9.57Zm0-4.443a.713.713,0,0,0,.692.732h6.923a.734.734,0,0,0,0-1.465H3.462A.713.713,0,0,0,2.769,5.127Z" transform="translate(-0.455 0.455)"/></g></g></g></g></svg>