<svg xmlns="http://www.w3.org/2000/svg" width="13.009" height="12.995" viewBox="0 0 13.009 12.995"><defs><style>.a{fill:#fff;}</style></defs><path class="a" d="M866.151,489.128a2.584,2.584,0,0,0-1.367-4.213,2.612,2.612,0,0,0-3.219,2.531,2.57,2.57,0,0,0,.636,1.682,5.282,5.282,0,0,0-3.195,4.14.654.654,0,0,0,.652.736.646.646,0,0,0,.641-.554,3.964,3.964,0,0,1,3.85-3.408l.028,0,.028,0a3.964,3.964,0,0,1,3.849,3.408.646.646,0,0,0,.641.554h0a.654.654,0,0,0,.652-.736A5.282,5.282,0,0,0,866.151,489.128Zm-1.947-.386h-.055a1.305,1.305,0,1,1,.055,0Zm7.805-5.134a.651.651,0,0,1-.653.65H870.1v1.3a.661.661,0,0,1-.664.65h-.011a.632.632,0,0,1-.63-.65v-1.3H867.44a.65.65,0,1,1,0-1.3h1.351v-1.3a.641.641,0,0,1,.636-.649.67.67,0,0,1,.67.649v1.3h1.26A.651.651,0,0,1,872.009,483.608Zm-2.577-2.6h0Z" transform="translate(-858.999 -481.009)"/></svg>