<svg xmlns="http://www.w3.org/2000/svg" xmlns:xlink="http://www.w3.org/1999/xlink" width="240.556" height="211" viewBox="0 0 240.556 211"><defs><style>.a,.b{opacity:0.6;}.a{fill:url(#a);}.b{fill:url(#b);}.c{fill:#fff;fill-rule:evenodd;}.d{opacity:0.5;}.e{fill:#8500ac;}.f{fill:#e17dff;}.g,.h{fill:#c500ff;}.g{opacity:0.3;}</style><linearGradient id="a" x1="1.112" y1="-0.229" x2="0.146" y2="1" gradientUnits="objectBoundingBox"><stop offset="0" stop-color="#9b77ff"/><stop offset="1" stop-color="#c500ff"/></linearGradient><linearGradient id="b" x1="1.124" y1="1.357" x2="0.135" y2="0.101" xlink:href="#a"/></defs><g transform="translate(-841 -253)"><circle class="a" cx="96.5" cy="96.5" r="96.5" transform="translate(864 271)"/><circle class="b" cx="67.5" cy="67.5" r="67.5" transform="translate(893 300)"/><path class="c" d="M79.167,9.033a3.22,3.22,0,0,0-4.526,0L29.356,54.018,9.445,34.389a3.22,3.22,0,0,0-4.526,0,3.149,3.149,0,0,0,0,4.482L27.1,60.737a3.253,3.253,0,0,0,4.529,0L79.167,13.515a3.143,3.143,0,0,0,0-4.482C77.918,7.794,80.419,10.269,79.167,9.033Z" transform="translate(918.039 333.057)"/><g class="d" transform="translate(995.682 257.667)"><g transform="translate(0 0)"><path class="e" d="M46.648,8A27.326,27.326,0,1,0,8,46.648,27.326,27.326,0,1,0,46.648,8ZM27.326,51.4A24.073,24.073,0,1,1,51.4,27.326,24.1,24.1,0,0,1,27.326,51.4Z" transform="translate(0 0)"/></g><g transform="translate(11.277 18.112)"><path class="e" d="M115.787,171.678a6.839,6.839,0,0,0-9.661,0,1.627,1.627,0,1,0,2.3,2.3,3.583,3.583,0,0,1,5.061,0,1.626,1.626,0,1,0,2.3-2.3Z" transform="translate(-105.65 -169.68)"/></g><g transform="translate(32.76 18.112)"><path class="e" d="M317.049,171.678a6.839,6.839,0,0,0-9.661,0,1.627,1.627,0,1,0,2.3,2.3,3.582,3.582,0,0,1,5.061,0,1.626,1.626,0,0,0,2.3-2.3Z" transform="translate(-306.912 -169.68)"/></g><g transform="translate(11.277 28.518)"><path class="e" d="M136.121,267.175H107.278a1.627,1.627,0,0,0-1.627,1.626,16.048,16.048,0,1,0,32.1,0A1.626,1.626,0,0,0,136.121,267.175ZM121.7,281.6a12.814,12.814,0,0,1-12.692-11.169h25.385A12.814,12.814,0,0,1,121.7,281.6Z" transform="translate(-105.651 -267.175)"/></g></g><circle class="f" cx="6" cy="6" r="6" transform="translate(910 253)"/><circle class="f" cx="4" cy="4" r="4" transform="translate(841 308)"/><circle class="g" cx="14" cy="14" r="14" transform="translate(854 341)"/><g transform="translate(177 -42)"><g class="d" transform="translate(-0.802 10.198)"><g transform="translate(697.502 316.141)"><rect class="h" width="2.576" height="15.357"/></g><g transform="translate(691.111 322.532)"><rect class="h" width="15.357" height="2.576"/></g></g><g class="d" transform="translate(188.184 1.184)"><g transform="translate(710.891 332.834)"><rect class="h" width="1.575" height="9.386"/></g><g transform="translate(706.985 336.74)"><rect class="h" width="9.386" height="1.574" transform="translate(0 0)"/></g></g><g transform="translate(-35 86)"><rect class="h" width="2.978" height="17.754" transform="translate(730.247 349.526)"/><rect class="h" width="17.754" height="2.978" transform="translate(722.859 356.915)"/></g></g><g class="d" transform="translate(746.489 248.489)"><path class="h" d="M324.964,99.32a6.6,6.6,0,1,1,6.6-6.6A6.607,6.607,0,0,1,324.964,99.32Zm0-10.75a4.151,4.151,0,1,0,4.151,4.151A4.155,4.155,0,0,0,324.964,88.571Z"/></g><g class="d" transform="translate(634 179)"><path class="h" d="M326.453,102.3a8.088,8.088,0,1,1,8.088-8.088A8.1,8.1,0,0,1,326.453,102.3Zm0-13.176a5.088,5.088,0,1,0,5.088,5.088A5.093,5.093,0,0,0,326.453,89.123Z"/></g></g></svg>